<svg xmlns="http://www.w3.org/2000/svg" width="80" height="80" viewBox="0 0 256 256"><g fill="none" stroke-miterlimit="10" font-family="none" font-weight="none" font-size="none" text-anchor="none" style="mix-blend-mode:normal"><path d="m128 156.822-77.715 77.716-28.823-28.823L99.178 128 21.462 50.285l28.823-28.823L128 99.178l77.715-77.716 28.823 28.823L156.822 128l77.716 77.715-28.823 28.823z" fill="#9cd0d4"/><path d="m50.285 23.725 75.45 75.45L128 101.44l2.262-2.262 75.453-75.453 26.56 26.56-75.453 75.453L154.56 128l2.262 2.262 75.45 75.453-26.56 26.56-75.45-75.453L128 154.56l-2.262 2.262-75.453 75.453-26.56-26.56 75.453-75.453L101.44 128l-2.262-2.262-75.453-75.453 26.56-26.56m155.43-4.525L128 96.915 50.285 19.2 19.2 50.285 96.915 128 19.2 205.715 50.285 236.8 128 159.085l77.715 77.715 31.085-31.085L159.085 128 236.8 50.285 205.715 19.2z" fill="#64bcc2"/></g></svg>